{
  "title": "Fear the Walking Dead S02E14 1080p WEB-DL HEVC DD5.1 x265",
  "uid": 15944839,
  "size": 737090685,
  "categoryP": "video",
  "categoryS": "hd___tv_shows",
  "magnet": "?xt=urn:btih:e46dd1276c04120130aaab73c88e5249087bf4fe&amp;dn=Fear+the+Walking+Dead+S02E14+1080p+WEB-DL+HEVC+DD5.1+x265&amp;tr=udp%3A%2F%2Ftracker.leechers-paradise.org%3A6969&amp;tr=udp%3A%2F%2Fzer0day.ch%3A1337&amp;tr=udp%3A%2F%2Fopen.demonii.com%3A1337&amp;tr=udp%3A%2F%2Ftracker.coppersurfer.tk%3A6969&amp;tr=udp%3A%2F%2Fexodus.desync.com%3A6969",
  "seeders": 58,
  "leechers": 11,
  "uploader": "nayhtut",
  "files": 1,
  "time": 1475496210,
  "description": "Source: Fear the Walking Dead S02E14 1080p WEB-DL DD5 1 H264-RARBG (1.64 GB)\r\n\r\n\r\nComplete name: Fear.the.Walking.Dead.S02E14.1080p.WEB-DL.HEVC.DD5.1.x265.mkv\r\nFormat                                   : Matroska\r\nFormat version                           : Version 4 / Version 2\r\nFile size                                : 703 MiB\r\nDuration                                 : 42mn 8s\r\nOverall bit rate                         : 2 333 Kbps\r\nWriting application                      : Lavf57.25.100\r\nWriting library                          : Lavf57.25.100\r\n\r\nVideo\r\n\r\nID                                       : 1\r\nFormat                                   : V_MPEGH/ISO/HEVC\r\nCodec ID                                 : V_MPEGH/ISO/HEVC\r\nDuration                                 : 42mn 8s\r\nBit rate                                 : 1 902 Kbps\r\nWidth                                    : 1 916 pixels\r\nHeight                                   : 1 076 pixels\r\nDisplay aspect ratio                     : 16:9\r\nFrame rate                               : 25.000 fps\r\nBits/(Pixel*Frame)                       : 0.037\r\nStream size                              : 573 MiB (82%)\r\nWriting library                          : Lavc57.48.101 libx265\r\nLanguage                                 : English\r\nDefault                                  : Yes\r\nForced                                   : No\r\nDURATION                                 : 00:42:08.011000000\r\n\r\nAudio\r\n\r\nID                                       : 2\r\nFormat                                   : AC-3\r\nFormat/Info                              : Audio Coding 3\r\nMode extension                           : CM (complete main)\r\nFormat settings, Endianness              : Big\r\nCodec ID                                 : A_AC3\r\nDuration                                 : 42mn 8s\r\nBit rate mode                            : Constant\r\nBit rate                                 : 384 Kbps\r\nChannel(s)                               : 6 channels\r\nChannel positions                        : Front: L C R, Side: L R, LFE\r\nSampling rate                            : 48.0 KHz\r\nBit depth                                : 16 bits\r\nCompression mode                         : Lossy\r\nStream size                              : 116 MiB (16%)\r\nWriting library                          : Lavc57.24.102 ac3\r\nLanguage                                 : English\r\nDefault                                  : Yes\r\nForced                                   : No\r\nDURATION                                 : 00:42:08.031000000\r\n\r\nText\r\n\r\nID                                       : 3\r\nFormat                                   : ASS\r\nCodec ID                                 : S_TEXT/ASS\r\nCodec ID/Info                            : Advanced Sub Station Alpha\r\nCompression mode                         : Lossless\r\nLanguage                                 : English\r\nDefault                                  : Yes",
  "parsed": {
    "xt": "urn:btih:e46dd1276c04120130aaab73c88e5249087bf4fe",
    "dn": "Fear the Walking Dead S02E14 1080p WEB-DL HEVC DD5.1 x265",
    "tr": [
      "udp://exodus.desync.com:6969",
      "udp://open.demonii.com:1337",
      "udp://tracker.coppersurfer.tk:6969",
      "udp://tracker.leechers-paradise.org:6969",
      "udp://zer0day.ch:1337"
    ],
    "infoHash": "e46dd1276c04120130aaab73c88e5249087bf4fe",
    "infoHashBuffer": {
      "type": "Buffer",
      "data": [
        228,
        109,
        209,
        39,
        108,
        4,
        18,
        1,
        48,
        170,
        171,
        115,
        200,
        142,
        82,
        73,
        8,
        123,
        244,
        254
      ]
    },
    "name": "Fear the Walking Dead S02E14 1080p WEB-DL HEVC DD5.1 x265",
    "announce": [
      "udp://exodus.desync.com:6969",
      "udp://open.demonii.com:1337",
      "udp://tracker.coppersurfer.tk:6969",
      "udp://tracker.leechers-paradise.org:6969",
      "udp://zer0day.ch:1337"
    ],
    "urlList": []
  },
  "previous": 69,
  "peers": 100,
  "last_updated": "2016-12-25T16:33:09.527Z"
}